:FULLY-SPECIFIED
:FORCE-ALL-JOINTS-BE-3DOF
:DEGREES
1
root -2.95645 16.8291 -36.2757 3.79203 -0.409345 -2.77144
lfemur -18.1857 -3.85478 -7.37129
ltibia 37.6337 0 0
lfoot -17.8071 6.78532 0
ltoes -26.1578 0 0
rfemur -19.1521 0.15077 14.7318
rtibia 40.3652 0 0
rfoot -23.1652 -2.86285 0
rtoes -21.0274 0 0
lowerback 7.02591 2.55716 -1.97249
upperback -3.14202 3.31583 1.27229
thorax -7.43554 1.75645 1.99661
lowerneck -4.68188 -4.04088 -6.84108
upperneck 4.69893 -5.30737 6.47589
head 2.76948 -2.5844 3.14763
lclavicle 1.91563e-15 -9.24349e-15 0
lhumerus -27.0689 -5.33108 89.6453
lradius 25.7364 0 0
lwrist -30.6252 0 0
lhand -28.8405 29.9909 0
lfingers 7.12502 0 0
lthumb -2.19771 59.9594 0
rclavicle 1.91563e-15 -9.24349e-15 0
rhumerus -32.8355 4.71181 -81.727
rradius 32.9783 0 0
rwrist 3.84135 0 0
rhand -24.1523 -25.0894 0
rfingers 7.12502 0 0
rthumb 2.33029 -55.0564 0
2
root -2.95815 16.8319 -36.2759 3.75697 -0.445617 -2.76838
lfemur -18.1666 -3.60514 -7.41545
ltibia 37.6632 -0 0
lfoot -17.8267 6.81706 -0.000103549
ltoes -25.925 0 0
rfemur -19.1669 0.039673 14.7327
rtibia 40.4182 -0 0
rfoot -23.1247 -2.63452 0.00154105
rtoes -20.4426 0 0
lowerback 7.09085 2.54911 -1.96311
upperback -3.12378 3.30514 1.27631
thorax -7.45267 1.75066 1.99493
lowerneck -4.6638 -4.02811 -6.84084
upperneck 4.69107 -5.29121 6.47927
head 2.76232 -2.57656 3.14971
lclavicle 1.91563e-15 -9.24349e-15 0
lhumerus -27.031 -5.32666 89.6647
lradius 25.7498 -0 0
lwrist -30.5868 0 0
lhand -28.8374 29.9849 -3.04616e-06
lfingers 7.12502 -0 0
lthumb -2.19475 59.9535 -2.92955e-06
rclavicle 1.91563e-15 -9.24349e-15 0
rhumerus -32.7856 4.65293 -81.6881
rradius 32.8845 -0 0
rwrist 3.83333 0 0
rhand -24.0813 -25.1823 -0.00109812
rfingers 7.12502 -0 0
rthumb 2.39883 -55.1483 -0.0010494
3
root -2.95991 16.8339 -36.2766 3.71917 -0.484719 -2.76505
lfemur -18.1463 -3.33599 -7.46295
ltibia 37.6949 -0 0
lfoot -17.8478 6.85128 -0.000203031
ltoes -25.6741 0 0
rfemur -19.1828 -0.0800995 14.7336
rtibia 40.4754 -0 0
rfoot -23.081 -2.38836 0.00302166
rtoes -19.8121 0 0
lowerback 7.16085 2.54042 -1.95301
upperback -3.10411 3.29361 1.28064
thorax -7.47114 1.74442 1.99312
lowerneck -4.6443 -4.01434 -6.84058
upperneck 4.6826 -5.27378 6.4829
head 2.75461 -2.56811 3.15195
lclavicle 1.91563e-15 -9.24349e-15 0
lhumerus -26.9901 -5.32191 89.6856
lradius 25.7642 -0 0
lwrist -30.5454 0 0
lhand -28.8341 29.9785 -5.97269e-06
lfingers 7.12502 -0 0
lthumb -2.19155 59.9471 -5.74404e-06
rclavicle 1.91563e-15 -9.24349e-15 0
rhumerus -32.7318 4.58942 -81.6461
rradius 32.7834 -0 0
rwrist 3.82468 0 0
rhand -24.0048 -25.2824 -0.00215312
rfingers 7.12502 -0 0
rthumb 2.47273 -55.2474 -0.00205759
4
root -2.96171 16.8352 -36.2779 3.67908 -0.526179 -2.76149
lfemur -18.1249 -3.05058 -7.51319
ltibia 37.7286 -0 0
lfoot -17.8702 6.88757 -0.000294744
ltoes -25.408 0 0
rfemur -19.1997 -0.207101 14.7346
rtibia 40.536 -0 0
rfoot -23.0347 -2.12735 0.0043867
rtoes -19.1436 0 0
lowerback 7.23508 2.5312 -1.94232
upperback -3.08326 3.28139 1.28522
thorax -7.49072 1.7378 1.99121
lowerneck -4.62363 -3.99975 -6.8403
upperneck 4.67362 -5.25531 6.48676
head 2.74643 -2.55914 3.15433
lclavicle 1.91563e-15 -9.24349e-15 0
lhumerus -26.9468 -5.31689 89.7078
lradius 25.7794 -0 0
lwrist -30.5016 0 0
lhand -28.8306 29.9717 -8.67065e-06
lfingers 7.12502 -0 0
lthumb -2.18816 59.9403 -8.33872e-06
rclavicle 1.91563e-15 -9.24349e-15 0
rhumerus -32.6748 4.52203 -81.6018
rradius 32.6761 -0 0
rwrist 3.81551 0 0
rhand -23.9237 -25.3886 -0.00312574
rfingers 7.12502 -0 0
rthumb 2.55109 -55.3524 -0.00298706
5
root -2.96355 16.8359 -36.2797 3.63717 -0.569525 -2.75774
lfemur -18.1029 -2.75215 -7.5656
ltibia 37.7638 -0 0
lfoot -17.8936 6.92551 -0.000375473
ltoes -25.1298 0 0
rfemur -19.2173 -0.339887 14.7358
rtibia 40.5994 -0 0
rfoot -22.9863 -1.85444 0.0055883
rtoes -18.4446 0 0
lowerback 7.31268 2.52153 -1.93115
upperback -3.06145 3.2686 1.29001
thorax -7.51119 1.73088 1.98921
lowerneck -4.60201 -3.98448 -6.84
upperneck 4.66423 -5.23599 6.49078
head 2.73787 -2.54977 3.15681
lclavicle 1.91563e-15 -9.24349e-15 0
lhumerus -26.9015 -5.31166 89.731
lradius 25.7954 -0 0
lwrist -30.4557 0 0
lhand -28.827 29.9646 -1.10455e-05
lfingers 7.12502 -0 0
lthumb -2.18462 59.9332 -1.06226e-05
rclavicle 1.91563e-15 -9.24349e-15 0
rhumerus -32.6153 4.45152 -81.5554
rradius 32.564 -0 0
rwrist 3.80592 0 0
rhand -23.8388 -25.4996 -0.00398188
rfingers 7.12502 -0 0
rthumb 2.63301 -55.4623 -0.00380522
6
root -2.9654 16.836 -36.2819 3.59388 -0.614283 -2.75383
lfemur -18.0804 -2.44395 -7.61959
ltibia 37.8002 -0 0
lfoot -17.9178 6.96469 -0.000442572
ltoes -24.8424 0 0
rfemur -19.2355 -0.47701 14.737
rtibia 40.6649 -0 0
rfoot -22.9363 -1.57262 0.00658707
rtoes -17.7227 0 0
lowerback 7.39282 2.51154 -1.91962
upperback -3.03894 3.2554 1.29495
thorax -7.53234 1.72373 1.98714
lowerneck -4.57969 -3.96872 -6.83969
upperneck 4.65454 -5.21604 6.49494
head 2.72904 -2.54009 3.15937
lclavicle 1.91563e-15 -9.24349e-15 0
lhumerus -26.8547 -5.30628 89.755
lradius 25.8119 -0 0
lwrist -30.4083 0 0
lhand -28.8232 29.9572 -1.30194e-05
lfingers 7.12502 -0 0
lthumb -2.18096 59.9259 -1.2521e-05
rclavicle 1.91563e-15 -9.24349e-15 0
rhumerus -32.5539 4.37866 -81.5077
rradius 32.4482 -0 0
rwrist 3.79602 0 0
rhand -23.7512 -25.6142 -0.00469349
rfingers 7.12502 -0 0
rthumb 2.71762 -55.5757 -0.00448525
7
root -2.96725 16.8356 -36.2844 3.54968 -0.659983 -2.74981
lfemur -18.0578 -2.12923 -7.67458
ltibia 37.8373 -0 0
lfoot -17.9424 7.00469 -0.000494032
ltoes -24.5491 0 0
rfemur -19.2542 -0.617024 14.7383
rtibia 40.7317 -0 0
rfoot -22.8852 -1.28485 0.00735307
rtoes -16.9857 0 0
lowerback 7.47465 2.50132 -1.90787
upperback -3.01595 3.24192 1.29999
thorax -7.55392 1.71643 1.98504
lowerneck -4.5569 -3.95263 -6.83936
upperneck 4.64464 -5.19566 6.49918
head 2.72003 -2.53021 3.16198
lclavicle 1.91563e-15 -9.24349e-15 0
lhumerus -26.8069 -5.3008 89.7794
lradius 25.8287 -0 0
lwrist -30.3599 0 0
lhand -28.8193 29.9497 -1.45332e-05
lfingers 7.12502 -0 0
lthumb -2.17723 59.9184 -1.39768e-05
rclavicle 1.91563e-15 -9.24349e-15 0
rhumerus -32.4912 4.30421 -81.459
rradius 32.33 -0 0
rwrist 3.78591 0 0
rhand -23.6618 -25.7312 -0.00523924
rfingers 7.12502 -0 0
rthumb 2.80401 -55.6915 -0.00500679
8
root -2.96909 16.8349 -36.2872 3.50502 -0.706151 -2.74571
lfemur -18.0353 -1.81123 -7.73
ltibia 37.8748 -0 0
lfoot -17.9674 7.04511 -0.000528524
ltoes -24.2527 0 0
rfemur -19.273 -0.758484 14.7396
rtibia 40.7992 -0 0
rfoot -22.8336 -0.994112 0.0078665
rtoes -16.241 0 0
lowerback 7.55731 2.49098 -1.89602
upperback -2.99273 3.22829 1.30507
thorax -7.57574 1.70906 1.98292
lowerneck -4.53387 -3.93637 -6.83902
upperneck 4.63464 -5.17508 6.50345
head 2.71092 -2.52023 3.16462
lclavicle 1.91563e-15 -9.24349e-15 0
lhumerus -26.7587 -5.29529 89.8042
lradius 25.8457 -0 0
lwrist -30.311 0 0
lhand -28.8154 29.9421 -1.55478e-05
lfingers 7.12502 -0 0
lthumb -2.17345 59.9108 -1.49526e-05
rclavicle 1.91563e-15 -9.24349e-15 0
rhumerus -32.428 4.22894 -81.4099
rradius 32.2106 -0 0
rwrist 3.77569 0 0
rhand -23.5714 -25.8495 -0.00560503
rfingers 7.12502 -0 0
rthumb 2.8913 -55.8086 -0.00535635
9
root -2.9709 16.8337 -36.2902 3.46035 -0.752316 -2.74157
lfemur -18.013 -1.49322 -7.78528
ltibia 37.9123 -0 0
lfoot -17.9923 7.08553 -0.000545425
ltoes -23.9563 0 0
rfemur -19.2918 -0.899943 14.741
rtibia 40.8667 -0 0
rfoot -22.782 -0.703373 0.00811809
rtoes -15.4964 0 0
lowerback 7.63998 2.48062 -1.88417
upperback -2.96951 3.21466 1.31015
thorax -7.59755 1.70168 1.9808
lowerneck -4.51085 -3.92011 -6.83867
upperneck 4.62465 -5.15449 6.50773
head 2.70181 -2.51024 3.16726
lclavicle 1.91563e-15 -9.24349e-15 0
lhumerus -26.7104 -5.2898 89.8289
lradius 25.8627 -0 0
lwrist -30.2622 0 0
lhand -28.8115 29.9345 -1.6045e-05
lfingers 7.12502 -0 0
lthumb -2.16968 59.9033 -1.54308e-05
rclavicle 1.91563e-15 -9.24349e-15 0
rhumerus -32.3649 4.15362 -81.3609
rradius 32.0911 -0 0
rwrist 3.76548 0 0
rhand -23.481 -25.9678 -0.00578427
rfingers 7.12502 -0 0
rthumb 2.97858 -55.9256 -0.00552764
10
root -2.97267 16.8322 -36.2934 3.41614 -0.798006 -2.73744
lfemur -17.9913 -1.17843 -7.83988
ltibia 37.9494 -0 0
lfoot -18.017 7.12553 -0.000544831
ltoes -23.6629 0 0
rfemur -19.3104 -1.03996 14.7424
rtibia 40.9336 -0 0
rfoot -22.731 -0.415605 0.00810926
rtoes -14.7593 0 0
lowerback 7.7218 2.47034 -1.87247
upperback -2.94653 3.20117 1.31517
thorax -7.61913 1.69438 1.9787
lowerneck -4.48806 -3.90402 -6.83833
upperneck 4.61476 -5.13412 6.51196
head 2.69279 -2.50036 3.16987
lclavicle 1.91563e-15 -9.24349e-15 0
lhumerus -26.6626 -5.28438 89.8534
lradius 25.8795 -0 0
lwrist -30.2138 0 0
lhand -28.8076 29.927 -1.60276e-05
lfingers 7.12502 -0 0
lthumb -2.16594 59.8958 -1.5414e-05
rclavicle 1.91563e-15 -9.24349e-15 0
rhumerus -32.3025 4.07901 -81.3125
rradius 31.9729 -0 0
rwrist 3.75537 0 0
rhand -23.3915 -26.0848 -0.00577798
rfingers 7.12502 -0 0
rthumb 3.06498 -56.0414 -0.00552162
11
root -2.97438 16.8305 -36.2967 3.37283 -0.842749 -2.73336
lfemur -17.9703 -0.870126 -7.89322
ltibia 37.9858 -0 0
lfoot -18.0412 7.16471 -0.000527548
ltoes -23.3756 0 0
rfemur -19.3287 -1.17708 14.7438
rtibia 40.999 -0 0
rfoot -22.6809 -0.133781 0.00785198
rtoes -14.0375 0 0
lowerback 7.80192 2.46027 -1.86102
upperback -2.92403 3.18796 1.32009
thorax -7.64027 1.68723 1.97665
lowerneck -4.46574 -3.88826 -6.83798
upperneck 4.60507 -5.11416 6.51609
head 2.68396 -2.49068 3.17242
lclavicle 1.91563e-15 -9.24349e-15 0
lhumerus -26.6158 -5.2791 89.8774
lradius 25.896 -0 0
lwrist -30.1664 0 0
lhand -28.8038 29.9196 -1.55191e-05
lfingers 7.12502 -0 0
lthumb -2.16229 59.8885 -1.4925e-05
rclavicle 1.91563e-15 -9.24349e-15 0
rhumerus -32.2415 4.00589 -81.2652
rradius 31.8571 -0 0
rwrist 3.74546 0 0
rhand -23.3039 -26.1994 -0.00559469
rfingers 7.12502 -0 0
rthumb 3.14958 -56.1548 -0.00534646
12
root -2.97602 16.8286 -36.3001 3.33089 -0.886074 -2.72938
lfemur -17.9503 -0.571556 -7.94477
ltibia 38.021 -0 0
lfoot -18.0646 7.20265 -0.00049506
ltoes -23.0974 0 0
rfemur -19.3463 -1.30986 14.7453
rtibia 41.0624 -0 0
rfoot -22.6325 0.139127 0.00736837
rtoes -13.3385 0 0
lowerback 7.87951 2.4505 -1.84994
upperback -2.90223 3.17516 1.32484
thorax -7.66074 1.6803 1.97467
lowerneck -4.44413 -3.873 -6.83764
upperneck 4.59569 -5.09484 6.52009
head 2.67541 -2.4813 3.17489
lclavicle 1.91563e-15 -9.24349e-15 0
lhumerus -26.5705 -5.274 89.9006
lradius 25.912 -0 0
lwrist -30.1205 0 0
lhand -28.8002 29.9125 -1.45634e-05
lfingers 7.12502 -0 0
lthumb -2.15874 59.8814 -1.40059e-05
rclavicle 1.91563e-15 -9.24349e-15 0
rhumerus -32.1824 3.93503 -81.2194
rradius 31.745 -0 0
rwrist 3.73588 0 0
rhand -23.2191 -26.3104 -0.00525014
rfingers 7.12502 -0 0
rthumb 3.23152 -56.2647 -0.0050172
13
root -2.97757 16.8266 -36.3034 3.29078 -0.927509 -2.72554
lfemur -17.9314 -0.285975 -7.99397
ltibia 38.0547 -0 0
lfoot -18.087 7.23894 -0.000449486
ltoes -22.8313 0 0
rfemur -19.3633 -1.43686 14.7467
rtibia 41.123 -0 0
rfoot -22.5862 0.400148 0.00668998
rtoes -12.67 0 0
lowerback 7.95371 2.44114 -1.83936
upperback -2.88139 3.16292 1.32938
thorax -7.68032 1.67367 1.97278
lowerneck -4.42346 -3.8584 -6.83731
upperneck 4.58673 -5.07636 6.52392
head 2.66724 -2.47233 3.17726
lclavicle 1.91563e-15 -9.24349e-15 0
lhumerus -26.5272 -5.26914 89.9228
lradius 25.9273 -0 0
lwrist -30.0767 0 0
lhand -28.7967 29.9057 -1.32227e-05
lfingers 7.12502 -0 0
lthumb -2.15536 59.8746 -1.27165e-05
rclavicle 1.91563e-15 -9.24349e-15 0
rhumerus -32.126 3.86722 -81.1757
rradius 31.6378 -0 0
rwrist 3.72671 0 0
rhand -23.1379 -26.4166 -0.00476681
rfingers 7.12502 -0 0
rthumb 3.30988 -56.3697 -0.00455531
